<svg xmlns="http://www.w3.org/2000/svg" viewBox="0 0 64 64" width="64" height="64">
  <defs>
    <linearGradient id="g" x1="0" y1="0" x2="1" y2="1">
      <stop offset="0" stop-color="#e11d48"/>
      <stop offset="1" stop-color="#fb7185"/>
    </linearGradient>
  </defs>
  <rect width="64" height="64" rx="14" fill="url(#g)"/>
  <path fill="#fff" d="M32 47.5c-1 0-2-.4-2.7-1.1l-11-10.6C15 32.5 14 29.4 14 26.2c0-5 3.7-8.9 8.5-8.9 2.7 0 5.3 1.3 6.9 3.4l2.6 3.4 2.6-3.4c1.6-2.1 4.2-3.4 6.9-3.4 4.8 0 8.5 3.9 8.5 8.9 0 3.2-1 6.3-4.3 9.6l-11 10.6c-.7.7-1.7 1.1-2.7 1.1z"/>
</svg>
